# File created by Blade
# Date/Time:  Tue Jan 27 17:27:44 2015
#---------------------------------------------------------
:version 1.10
:name HOM
:units
  mass 1.0
  length 1.000000
  angle deg
:documentation
     Acclaim Skeleton File
:root
   axis xyz
   order TX TY TZ RX RY RZ
   position 0.000000 0.000000 0.000000
   orientation 0 0 0
:bonedata
   begin
      id 1
      name Spine_dum
      direction 0.000000 1.000000 0.000000
      length 7.539951
      axis 0.0 0.0 0.0 xyz
   end
   begin
      id 2
      name LeftUpLeg_dum
      direction 1.000000 0.000000 0.000000
      length 3.345476
      axis 0.0 0.0 0.0 xyz
   end
   begin
      id 3
      name RightUpLeg_dum
      direction -1.000000 0.000000 0.000000
      length 3.345476
      axis 0.0 0.0 0.0 xyz
   end
   begin
      id 4
      name Spine
      direction 0.000000 1.000000 0.000000
      length 0.000000
      axis 0.0 0.0 0.0 xyz
      dof rx ry rz
   end
   begin
      id 5
      name Spine_dum1
      direction 0.000000 1.000000 0.000000
      length 15.093809
      axis 0.0 0.0 0.0 xyz
   end
   begin
      id 6
      name Spine_dum2
      direction 0.000000 1.000000 0.000000
      length 9.738928
      axis 0.0 0.0 0.0 xyz
   end
   begin
      id 7
      name Spine_dum3
      direction 0.000000 1.000000 0.000000
      length 9.738928
      axis 0.0 0.0 0.0 xyz
   end
   begin
      id 8
      name Head
      direction 0.000000 1.000000 0.000000
      length 4.527550
      axis 0.0 0.0 0.0 xyz
      dof rx ry rz
   end
   begin
      id 9
      name LeftShoulder
      direction 1.000000 0.000000 0.000000
      length 7.084015
      axis 0.0 0.0 -90.0 xyz
      dof rx ry rz
   end
   begin
      id 10
      name LeftArm
      direction 1.000000 0.000000 0.000000
      length 10.259319
      axis 0.0 0.0 -90.0 xyz
      dof rx ry rz
   end
   begin
      id 11
      name LeftForeArm
      direction 1.000000 0.000000 0.000000
      length 9.896984
      axis 0.0 0.0 -90.0 xyz
      dof ry rz rx
   end
   begin
      id 12
      name LeftHand
      direction 0.000000 0.000000 0.000000
      length 0.000000
      axis 0.0 0.0 -90.0 xyz
      dof rx ry rz
   end
   begin
      id 13
      name LeftHand_dum1
      direction 0.000000 0.000000 0.000000
      length 0.000000
      axis 0.0 0.0 -90.0 xyz
   end
   begin
      id 14
      name LeftHand_dum2
      direction 1.000000 0.000000 0.000000
      length 3.937000
      axis 0.0 0.0 -90.0 xyz
   end
   begin
      id 15
      name LeftHandThumb1
      direction 0.000000 0.000000 1.000000
      length 3.937000
      axis 0.0 0.0 -90.0 xyz
      dof rx rz ry
   end
   begin
      id 16
      name RightShoulder
      direction -1.000000 0.000000 0.000000
      length 7.084015
      axis 0.0 0.0 90.0 xyz
      dof rx ry rz
   end
   begin
      id 17
      name RightArm
      direction -1.000000 0.000000 0.000000
      length 10.259319
      axis 0.0 0.0 90.0 xyz
      dof rx ry rz
   end
   begin
      id 18
      name RightForeArm
      direction -1.000000 0.000000 0.000000
      length 9.896984
      axis 0.0 0.0 90.0 xyz
      dof ry rz rx
   end
   begin
      id 19
      name RightHand
      direction 0.000000 0.000000 0.000000
      length 0.000000
      axis 0.0 0.0 90.0 xyz
      dof rx ry rz
   end
   begin
      id 20
      name RightHand_dum1
      direction 0.000000 0.000000 0.000000
      length 0.000000
      axis 0.0 0.0 90.0 xyz
   end
   begin
      id 21
      name RightHand_dum2
      direction -1.000000 0.000000 0.000000
      length 3.937000
      axis 0.0 0.0 90.0 xyz
   end
   begin
      id 22
      name RightHandThumb1
      direction 0.000000 0.000000 1.000000
      length 3.937000
      axis 0.0 0.0 90.0 xyz
      dof rx rz ry
   end
   begin
      id 23
      name LeftUpLeg
      direction 0.000000 -1.000000 0.000000
      length 19.114733
      axis 0.0 0.0 0.0 xyz
      dof rx ry rz
   end
   begin
      id 24
      name LeftLeg
      direction 0.000000 -1.000000 0.000000
      length 16.045604
      axis 0.0 0.0 0.0 xyz
      dof rx ry rz
   end
   begin
      id 25
      name LeftFoot
      direction 0.000000 -0.258819 0.965926
      length 5.543155
      axis 15.0 0.0 0.0 xyz
      dof rx ry rz
   end
   begin
      id 26
      name LeftToeBase
      direction 0.000000 0.000000 1.000000
      length 2.952750
      axis 0.0 0.0 0.0 xyz
      dof rx ry rz
   end
   begin
      id 27
      name RightUpLeg
      direction 0.000000 -1.000000 0.000000
      length 19.114733
      axis 0.0 0.0 0.0 xyz
      dof rx ry rz
   end
   begin
      id 28
      name RightLeg
      direction 0.000000 -1.000000 0.000000
      length 16.045604
      axis 0.0 0.0 0.0 xyz
      dof rx ry rz
   end
   begin
      id 29
      name RightFoot
      direction 0.000000 -0.258819 0.965926
      length 5.543155
      axis 15.0 0.0 0.0 xyz
      dof rx ry rz
   end
   begin
      id 30
      name RightToeBase
      direction 0.000000 0.000000 1.000000
      length 2.952750
      axis 0.0 0.0 0.0 xyz
      dof rx ry rz
   end
:hierarchy
   begin
      root Spine_dum LeftUpLeg_dum RightUpLeg_dum
      Spine_dum Spine
      LeftUpLeg_dum LeftUpLeg
      RightUpLeg_dum RightUpLeg
      Spine Spine_dum1 Spine_dum2 Spine_dum3
      Spine_dum1 Head
      Spine_dum2 LeftShoulder
      Spine_dum3 RightShoulder
      LeftShoulder LeftArm
      LeftArm LeftForeArm
      LeftForeArm LeftHand
      LeftHand LeftHand_dum1 LeftHand_dum2
      LeftHand_dum1 LeftHandThumb1
      RightShoulder RightArm
      RightArm RightForeArm
      RightForeArm RightHand
      RightHand RightHand_dum1 RightHand_dum2
      RightHand_dum1 RightHandThumb1
      LeftUpLeg LeftLeg
      LeftLeg LeftFoot
      LeftFoot LeftToeBase
      RightUpLeg RightLeg
      RightLeg RightFoot
      RightFoot RightToeBase
   end

# File created by Blade
# Date/Time:  Tue Jan 27 17:27:32 2015
# Frame Rate: 120.000 fps
#------------------------------------------------------
:FULLY-SPECIFIED
:DEGREES
1
root 0.997390 36.964544 1.917638 7.409571 1.400331 0.093964
Spine -5.519669 7.574678 -1.423923
Head 3.756903 -1.797010 1.678044
LeftShoulder -8.568910 -10.173465 17.246064
LeftArm -0.791936 -13.548189 -21.898117
LeftForeArm 34.771424 -0.000000 12.280641
LeftHand -22.347627 -0.000000 -1.462457
LeftHandThumb1 -26.253704 0.000000 33.147579
RightShoulder -9.396418 -6.076353 -16.281350
RightArm -0.711459 34.842429 30.028501
RightForeArm 174.304542 -0.000000 16.504734
RightHand 6.388804 -0.000000 -2.346096
RightHandThumb1 -24.326973 -0.000000 -32.862282
LeftUpLeg -4.674494 5.201708 0.671904
LeftLeg 6.108290 -0.000000 -0.000000
LeftFoot -16.565771 1.942370 -18.021362
LeftToeBase 14.813253 -0.000000 -0.000000
RightUpLeg -6.081483 -8.835484 -2.677757
RightLeg 10.889675 -0.000000 -0.000000
RightFoot -14.885204 -2.579785 7.287727
RightToeBase 3.415012 -0.000000 -0.000000
2
root 0.995000 36.964268 1.915209 7.426813 1.375882 0.101636
Spine -5.547123 7.574556 -1.468482
Head 3.730611 -1.749031 1.672278
LeftShoulder -8.578812 -10.209599 17.241783
LeftArm -0.769992 -13.524164 -21.861093
LeftForeArm 34.777846 -0.000000 12.292477
LeftHand -22.337165 -0.000000 -1.389015
LeftHandThumb1 -26.253704 0.000000 33.147579
RightShoulder -9.390453 -6.052067 -16.299009
RightArm -0.721511 34.829911 30.037571
RightForeArm 174.332115 0.000000 16.554502
RightHand 6.366671 -0.000000 -2.394780
RightHandThumb1 -24.326973 -0.000000 -32.862282
LeftUpLeg -4.705188 5.184892 0.660528
LeftLeg 6.133249 -0.000000 -0.000000
LeftFoot -16.578305 2.014763 -17.984586
LeftToeBase 14.779691 -0.000000 -0.000000
RightUpLeg -6.103292 -8.847163 -2.684851
RightLeg 10.881456 -0.000000 -0.000000
RightFoot -14.875805 -2.523225 7.305834
RightToeBase 3.400058 -0.000000 -0.000000
3
root 0.993118 36.964475 1.913797 7.427049 1.372075 0.105542
Spine -5.561184 7.558978 -1.503525
Head 3.729986 -1.699658 1.676612
LeftShoulder -8.587440 -10.176677 17.246435
LeftArm -0.711623 -13.571855 -21.871996
LeftForeArm 34.812354 -0.000000 12.320756
LeftHand -22.407179 -0.000000 -1.367974
LeftHandThumb1 -26.253704 0.000000 33.147579
RightShoulder -9.383741 -6.048787 -16.293246
RightArm -0.703491 34.848876 30.033796
RightForeArm 174.356456 0.000000 16.571182
RightHand 6.374514 -0.000000 -2.471108
RightHandThumb1 -24.326973 -0.000000 -32.862282
LeftUpLeg -4.722624 5.174520 0.654555
LeftLeg 6.164391 -0.000000 -0.000000
LeftFoot -16.592539 2.038482 -17.969901
LeftToeBase 14.774134 -0.000000 -0.000000
RightUpLeg -6.104795 -8.875838 -2.688360
RightLeg 10.880102 -0.000000 -0.000000
RightFoot -14.867822 -2.483404 7.291212
RightToeBase 3.384734 -0.000000 -0.000000
4
root 0.991659 36.963996 1.912451 7.434321 1.355297 0.111690
Spine -5.577010 7.569134 -1.542443
Head 3.701718 -1.711126 1.671434
LeftShoulder -8.587382 -10.211864 17.239178
LeftArm -0.664346 -13.523625 -21.841163
LeftForeArm 34.832292 -0.000000 12.313852
LeftHand -22.326614 -0.000000 -1.289337
LeftHandThumb1 -26.253704 0.000000 33.147579
RightShoulder -9.400357 -6.062017 -16.286088
RightArm -0.661766 34.848798 30.042563
RightForeArm 174.326389 0.000000 16.578978
RightHand 6.372846 -0.000000 -2.431292
RightHandThumb1 -24.326973 -0.000000 -32.862282
LeftUpLeg -4.744215 5.181385 0.643947
LeftLeg 6.191955 -0.000000 -0.000000
LeftFoot -16.611870 2.080263 -17.930920
LeftToeBase 14.759975 -0.000000 -0.000000
RightUpLeg -6.110765 -8.897903 -2.694450
RightLeg 10.867190 -0.000000 -0.000000
RightFoot -14.866525 -2.444099 7.281781
RightToeBase 3.413840 -0.000000 -0.000000
5
root 0.989937 36.963339 1.910417 7.434326 1.342198 0.119923
Spine -5.591843 7.577017 -1.592219
Head 3.696927 -1.681494 1.667321
LeftShoulder -8.570039 -10.199173 17.241673
LeftArm -0.610006 -13.516310 -21.816285
LeftForeArm 34.871002 0.000000 12.302586
LeftHand -22.370406 0.000000 -1.256824
LeftHandThumb1 -26.253704 0.000000 33.147579
RightShoulder -9.392871 -6.062680 -16.266975
RightArm -0.652442 34.846503 30.030006
RightForeArm 174.283195 -0.000000 16.575110
RightHand 6.353448 -0.000000 -2.425018
RightHandThumb1 -24.326973 -0.000000 -32.862282
LeftUpLeg -4.756941 5.162970 0.632744
LeftLeg 6.214601 -0.000000 -0.000000
LeftFoot -16.632040 2.119450 -17.930182
LeftToeBase 14.730744 -0.000000 -0.000000
RightUpLeg -6.109566 -8.903170 -2.701844
RightLeg 10.849179 -0.000000 -0.000000
RightFoot -14.886951 -2.432459 7.277456
RightToeBase 3.466414 -0.000000 -0.000000
6
root 0.988926 36.962573 1.907835 7.431456 1.317409 0.119059
Spine -5.597900 7.585856 -1.613508
Head 3.679558 -1.635206 1.538491
LeftShoulder -8.567045 -10.187183 17.240156
LeftArm -0.567391 -13.475065 -21.814808
LeftForeArm 34.802829 -0.000000 12.318726
LeftHand -22.421674 -0.000000 -1.214015
LeftHandThumb1 -26.253704 0.000000 33.147579
RightShoulder -9.370543 -6.063499 -16.271927
RightArm -0.646912 34.850788 30.031258
RightForeArm 174.263178 -0.000000 16.588025
RightHand 6.330142 -0.000000 -2.406909
RightHandThumb1 -24.326973 -0.000000 -32.862282
LeftUpLeg -4.763001 5.138933 0.629624
LeftLeg 6.228940 -0.000000 -0.000000
LeftFoot -16.665135 2.188025 -17.916008
LeftToeBase 14.753161 -0.000000 -0.000000
RightUpLeg -6.108741 -8.858559 -2.707222
RightLeg 10.859460 -0.000000 -0.000000
RightFoot -14.837547 -2.412612 7.196653
RightToeBase 3.262489 -0.000000 -0.000000
7
root 0.989383 36.961976 1.905943 7.427884 1.300114 0.126383
Spine -5.602998 7.598240 -1.640554
Head 3.699502 -1.565741 1.536036
LeftShoulder -8.558766 -10.158789 17.239390
LeftArm -0.508164 -13.495718 -21.834375
LeftForeArm 34.768457 0.000000 12.328542
LeftHand -22.432788 -0.000000 -1.154627
LeftHandThumb1 -26.253704 0.000000 33.147579
RightShoulder -9.358308 -6.053249 -16.278811
RightArm -0.649024 34.838860 30.035712
RightForeArm 174.240887 -0.000000 16.595278
RightHand 6.331889 0.000000 -2.356960
RightHandThumb1 -24.326973 -0.000000 -32.862282
LeftUpLeg -4.766864 5.124645 0.616623
LeftLeg 6.240378 -0.000000 -0.000000
LeftFoot -16.680142 2.224064 -17.923008
LeftToeBase 14.747941 -0.000000 -0.000000
RightUpLeg -6.104355 -8.894140 -2.716056
RightLeg 10.827459 -0.000000 -0.000000
RightFoot -14.876862 -2.391721 7.249554
RightToeBase 3.489142 -0.000000 -0.000000
8
root 0.989826 36.961611 1.904022 7.425665 1.275561 0.128323
Spine -5.610512 7.620679 -1.664639
Head 3.686548 -1.512313 1.503392
LeftShoulder -8.548527 -10.149199 17.240619
LeftArm -0.466164 -13.477985 -21.849486
LeftForeArm 34.712473 0.000000 12.358143
LeftHand -22.414279 -0.000000 -1.069306
LeftHandThumb1 -26.253704 0.000000 33.147579
RightShoulder -9.350632 -6.046568 -16.271679
RightArm -0.641170 34.825074 30.031321
RightForeArm 174.235354 -0.000000 16.597684
RightHand 6.336321 -0.000000 -2.392988
RightHandThumb1 -24.326973 -0.000000 -32.862282
LeftUpLeg -4.772054 5.118810 0.607578
LeftLeg 6.254904 -0.000000 -0.000000
LeftFoot -16.704153 2.260819 -17.927213
LeftToeBase 14.775329 -0.000000 -0.000000
RightUpLeg -6.102329 -8.891370 -2.720213
RightLeg 10.810238 -0.000000 -0.000000
RightFoot -14.873573 -2.365963 7.291026
RightToeBase 3.461463 -0.000000 -0.000000
9
root 0.990973 36.960882 1.901896 7.421930 1.253220 0.132688
Spine -5.610321 7.632932 -1.681844
Head 3.670973 -1.471906 1.440205
LeftShoulder -8.549047 -10.142919 17.240377
LeftArm -0.431828 -13.495740 -21.869620
LeftForeArm 34.618272 -0.000000 12.397986
LeftHand -22.417848 -0.000000 -1.075531
LeftHandThumb1 -26.253704 0.000000 33.147579
RightShoulder -9.364367 -6.067519 -16.271007
RightArm -0.560930 34.841740 30.084423
RightForeArm 174.218178 -0.000000 16.592211
RightHand 6.344201 -0.000000 -2.336526
RightHandThumb1 -24.326973 -0.000000 -32.862282
LeftUpLeg -4.775979 5.114542 0.596397
LeftLeg 6.267984 -0.000000 -0.000000
LeftFoot -16.727150 2.299800 -17.905171
LeftToeBase 14.748976 -0.000000 -0.000000
RightUpLeg -6.098666 -8.881175 -2.728377
RightLeg 10.810806 -0.000000 -0.000000
RightFoot -14.835573 -2.341995 7.150144
RightToeBase 3.335913 -0.000000 -0.000000
10
root 0.991754 36.960540 1.899806 7.417879 1.230524 0.132097
Spine -5.613998 7.654440 -1.694155
Head 3.659612 -1.450683 1.341554
LeftShoulder -8.535981 -10.142883 17.230333
LeftArm -0.397996 -13.516739 -21.881932
LeftForeArm 34.571835 -0.000000 12.438471
LeftHand -22.515262 -0.000000 -1.058561
LeftHandThumb1 -26.253704 0.000000 33.147579
RightShoulder -9.357820 -6.066135 -16.270643
RightArm -0.551868 34.827545 30.102994
RightForeArm 174.233199 -0.000000 16.616429
RightHand 6.366797 -0.000000 -2.320404
RightHandThumb1 -24.326973 -0.000000 -32.862282
LeftUpLeg -4.774232 5.116391 0.590535
LeftLeg 6.269717 -0.000000 -0.000000
LeftFoot -16.741217 2.335608 -17.892769
LeftToeBase 14.766108 -0.000000 -0.000000
RightUpLeg -6.095914 -8.891295 -2.730304
RightLeg 10.788898 -0.000000 -0.000000
RightFoot -14.866778 -2.335713 7.261520
RightToeBase 3.444741 -0.000000 -0.000000
11
root 0.994098 36.959477 1.897761 7.403321 1.197808 0.135650
Spine -5.607609 7.689626 -1.712240
Head 3.682435 -1.377256 1.296217
LeftShoulder -8.511902 -10.142376 17.229321
LeftArm -0.382097 -13.532413 -21.907051
LeftForeArm 34.519038 -0.000000 12.507822
LeftHand -22.486807 -0.000000 -0.926907
LeftHandThumb1 -26.253704 0.000000 33.147579
RightShoulder -9.360563 -6.068912 -16.264024
RightArm -0.511593 34.815179 30.136052
RightForeArm 174.234253 -0.000000 16.608124
RightHand 6.352723 -0.000000 -2.266670
RightHandThumb1 -24.326973 -0.000000 -32.862282
LeftUpLeg -4.762388 5.109295 0.577547
LeftLeg 6.284893 -0.000000 -0.000000
LeftFoot -16.709798 2.383276 -17.716085
LeftToeBase 14.500241 -0.000000 -0.000000
RightUpLeg -6.083544 -8.852219 -2.743242
RightLeg 10.789974 -0.000000 -0.000000
RightFoot -14.833260 -2.326003 7.130342
RightToeBase 3.312677 -0.000000 -0.000000
12
root 0.996281 36.959165 1.895314 7.392699 1.176019 0.137718
Spine -5.599183 7.701544 -1.720718
Head 3.682757 -1.314685 1.274825
LeftShoulder -8.510804 -10.150429 17.215839
LeftArm -0.361206 -13.565419 -21.919852
LeftForeArm 34.519114 -0.000000 12.568752
LeftHand -22.472075 -0.000000 -0.834920
LeftHandThumb1 -26.253704 0.000000 33.147579
RightShoulder -9.352196 -6.074061 -16.260862
RightArm -0.488666 34.780947 30.172133
RightForeArm 174.268912 -0.000000 16.634707
RightHand 6.308828 -0.000000 -2.285507
RightHandThumb1 -24.326973 -0.000000 -32.862282
LeftUpLeg -4.755084 5.108032 0.572008
LeftLeg 6.282202 -0.000000 -0.000000
LeftFoot -16.774305 2.399188 -17.887158
LeftToeBase 14.744034 -0.000000 -0.000000
RightUpLeg -6.072492 -8.845697 -2.751432
RightLeg 10.764583 -0.000000 -0.000000
RightFoot -14.869580 -2.332880 7.245431
RightToeBase 3.479993 -0.000000 -0.000000
13
root 0.998490 36.958616 1.892414 7.386910 1.162517 0.137993
Spine -5.597443 7.697669 -1.729007
Head 3.680526 -1.256808 1.251506
LeftShoulder -8.518029 -10.162800 17.200944
LeftArm -0.345183 -13.570534 -21.912328
LeftForeArm 34.548624 -0.000000 12.630446
LeftHand -22.499584 -0.000000 -0.835228
LeftHandThumb1 -26.253704 0.000000 33.147579
RightShoulder -9.339553 -6.061657 -16.253907
RightArm -0.462800 34.737302 30.208100
RightForeArm 174.315440 -0.000000 16.649533
RightHand 6.280436 -0.000000 -2.278399
RightHandThumb1 -24.326973 -0.000000 -32.862282
LeftUpLeg -4.753560 5.096120 0.565377
LeftLeg 6.282999 -0.000000 -0.000000
LeftFoot -16.788110 2.432051 -17.893468
LeftToeBase 14.746239 -0.000000 -0.000000
RightUpLeg -6.067038 -8.829264 -2.755901
RightLeg 10.750314 -0.000000 -0.000000
RightFoot -14.862588 -2.340106 7.261101
RightToeBase 3.463701 -0.000000 -0.000000
